<?xml version="1.0" standalone="no"?>
<!DOCTYPE svg PUBLIC "-//W3C//DTD SVG 20010904//EN"
 "http://www.w3.org/TR/2001/REC-SVG-20010904/DTD/svg10.dtd">
<svg version="1.0" xmlns="http://www.w3.org/2000/svg"
 width="531.000000pt" height="531.000000pt" viewBox="0 0 531.000000 531.000000"
 preserveAspectRatio="xMidYMid meet">
<metadata>
Created by potrace 1.11, written by Peter Selinger 2001-2013
</metadata>
<g transform="translate(0.000000,531.000000) scale(0.100000,-0.100000)"
fill="#000000" stroke="none">
<path d="M3272 4693 c-8 -11 -10 -12 -7 -3 5 12 4 12 -7 -1 -7 -9 -19 -14 -25
-12 -7 3 -13 0 -13 -6 0 -6 -6 -10 -12 -8 -7 1 -12 -3 -11 -10 2 -7 -6 -10
-17 -8 -12 2 -18 0 -15 -6 4 -5 -1 -9 -10 -9 -8 0 -20 -11 -25 -25 -5 -14 -15
-25 -21 -25 -8 0 -7 6 2 18 8 9 -3 2 -23 -17 -22 -21 -34 -40 -30 -49 3 -9 1
-13 -5 -9 -6 4 -13 1 -16 -7 -3 -8 -18 -21 -34 -28 -15 -8 -27 -20 -26 -26 2
-7 -2 -12 -9 -12 -6 0 -8 -3 -5 -7 4 -3 -1 -12 -11 -20 -9 -8 -11 -11 -3 -7
10 5 12 3 7 -5 -5 -7 -15 -10 -23 -6 -13 4 -14 3 -3 -10 10 -12 10 -15 -5 -15
-11 0 -15 -5 -11 -15 3 -9 -3 -24 -12 -33 -10 -10 -16 -24 -14 -30 2 -7 -4
-15 -13 -18 -13 -5 -14 -8 -3 -15 9 -6 9 -9 1 -9 -7 0 -17 -10 -24 -21 -8 -16
-8 -20 1 -14 9 6 9 2 1 -14 -7 -11 -15 -21 -19 -21 -4 0 -8 -23 -10 -52 -2
-28 -6 -56 -10 -62 -14 -22 -19 -107 -8 -125 4 -6 2 -11 -4 -11 -8 0 -8 -6 0
-20 6 -11 7 -20 2 -20 -9 0 -7 -64 3 -80 3 -6 3 -10 -2 -10 -4 0 -8 -11 -8
-25 0 -14 2 -25 5 -25 3 0 6 -21 6 -46 1 -26 6 -49 10 -53 5 -3 10 -15 11 -26
3 -27 11 -70 13 -70 2 0 11 -37 12 -52 1 -7 6 -13 12 -13 6 0 4 -5 -4 -10 -13
-8 -12 -10 3 -10 10 0 15 -5 12 -10 -4 -6 -2 -17 5 -25 8 -10 8 -15 -1 -20 -7
-5 -2 -15 16 -31 17 -15 22 -24 14 -24 -10 -1 -9 -4 4 -14 9 -7 17 -19 17 -26
0 -8 7 -22 17 -32 10 -12 12 -18 4 -18 -7 0 -9 -5 -6 -10 4 -6 11 -8 16 -5 5
4 9 -6 9 -20 0 -14 4 -23 10 -20 5 3 12 -6 16 -20 3 -14 11 -25 18 -25 7 0 6
-4 -2 -9 -11 -6 -10 -10 3 -15 10 -3 15 -12 11 -21 -3 -8 -1 -15 5 -15 6 0 7
-6 3 -12 -5 -9 -2 -8 9 1 15 12 17 12 12 -2 -4 -8 -1 -18 6 -23 8 -5 10 -3 4
6 -5 8 -4 11 3 6 6 -4 9 -13 6 -20 -3 -8 7 -26 23 -42 15 -15 19 -21 8 -13
-18 13 -19 12 -8 -2 7 -9 10 -18 7 -22 -3 -3 5 -4 18 -1 12 2 17 2 10 -2 -9
-4 -5 -12 13 -26 14 -11 24 -23 20 -26 -3 -3 -12 3 -20 14 -8 10 -15 15 -15
11 0 -4 19 -26 43 -48 l42 -41 5 -390 c3 -214 3 -392 1 -394 -9 -9 -9 -34 0
-34 6 0 6 -7 0 -18 -6 -11 -6 -24 0 -35 6 -9 6 -17 2 -17 -4 0 -8 -11 -8 -25
0 -14 4 -25 8 -25 4 0 3 -8 -2 -18 -6 -11 -6 -24 0 -33 11 -18 12 -32 0 -24
-6 3 -8 -5 -5 -19 2 -14 0 -28 -6 -31 -6 -4 -8 -10 -5 -15 3 -5 1 -12 -5 -15
-8 -5 -8 -11 0 -20 8 -10 8 -15 0 -20 -8 -5 -8 -10 0 -20 8 -10 8 -15 0 -20
-8 -5 -8 -10 0 -20 7 -9 8 -15 1 -19 -7 -4 -7 -15 -1 -31 6 -16 6 -27 -2 -31
-7 -5 -8 -3 -3 6 5 9 4 11 -3 6 -9 -5 -9 -13 -1 -28 8 -15 8 -19 -1 -13 -8 5
-11 -4 -9 -33 2 -23 0 -44 -3 -48 -4 -3 -3 -17 2 -30 5 -13 6 -24 2 -24 -11 0
-30 -100 -21 -106 10 -6 0 -36 -15 -46 -7 -5 -7 -8 2 -8 9 0 9 -7 -3 -30 -9
-18 -11 -30 -5 -30 7 0 7 -8 -1 -23 -15 -26 -15 -27 3 -38 10 -7 10 -9 1 -9
-7 0 -13 -11 -13 -25 0 -14 -4 -25 -8 -25 -10 0 -6 -65 4 -82 4 -6 3 -9 -2 -5
-9 5 -9 -75 0 -99 3 -8 2 -14 -3 -14 -4 0 -7 -10 -7 -22 1 -13 -4 -22 -11 -21
-7 2 -13 0 -13 -5 0 -4 -21 -7 -46 -7 -25 0 -48 -4 -51 -9 -4 -5 -1 -6 7 -1 9
5 11 4 6 -3 -4 -7 -15 -8 -29 -4 -30 11 -99 4 -123 -10 -6 -4 -21 -6 -33 -3
-12 2 -19 0 -16 -6 8 -12 -6 -12 -24 0 -9 6 -22 6 -33 0 -10 -5 -18 -6 -18 -2
0 4 -11 8 -25 8 -14 0 -25 -4 -25 -8 0 -4 -8 -4 -17 2 -11 6 -24 6 -35 0 -11
-6 -18 -6 -18 0 0 8 -18 8 -40 1 -16 -6 -96 3 -98 11 -2 5 -8 9 -13 9 -6 0 -7
-6 -3 -12 4 -8 3 -10 -2 -5 -5 5 -10 13 -10 18 -1 5 -3 10 -4 12 -1 1 -4 65
-5 142 -2 77 -7 156 -11 175 -4 19 -8 253 -8 520 0 404 2 484 14 482 11 -3 11
0 1 12 -11 13 -10 17 3 22 9 3 15 14 14 22 -2 9 2 17 9 17 6 0 15 4 20 9 5 5
3 6 -4 2 -16 -9 -16 -1 -2 25 6 11 15 17 22 12 7 -4 5 2 -3 12 -9 11 -10 16
-2 11 8 -4 12 -1 12 10 0 12 6 15 21 11 17 -5 18 -3 7 11 -10 12 -10 14 0 8 7
-4 12 -2 12 4 0 6 5 8 12 4 7 -5 9 -2 5 9 -3 9 1 21 11 29 13 11 15 11 8 -2
-4 -8 1 -5 10 8 9 12 22 22 29 22 8 0 15 6 17 12 3 7 13 13 24 13 10 0 19 7
19 15 0 8 8 14 17 12 9 -1 20 3 24 9 5 8 3 9 -6 4 -10 -6 -11 -4 -4 6 12 19
12 249 0 242 -5 -4 -7 1 -3 11 4 10 4 23 0 29 -4 7 -8 75 -8 152 -1 77 -5 147
-10 155 -5 8 -10 76 -10 150 0 74 -5 142 -10 150 -5 8 -9 80 -10 160 -1 80 -6
154 -11 165 -6 11 -10 74 -9 140 1 135 -4 158 -36 146 -16 -6 -22 -17 -23 -49
-1 -23 2 -42 6 -42 5 0 4 -8 -1 -18 -6 -11 -6 -24 0 -35 6 -9 6 -17 1 -17 -11
0 -10 -43 1 -51 5 -3 2 -13 -6 -21 -10 -9 -12 -20 -6 -30 6 -11 5 -18 -4 -21
-13 -5 -16 -45 -4 -64 4 -7 3 -14 -2 -18 -6 -3 -7 -15 -2 -28 5 -12 5 -32 0
-44 -5 -13 -4 -25 2 -28 5 -4 6 -12 2 -18 -10 -17 -11 -47 -1 -47 5 0 4 -8 -1
-18 -6 -11 -6 -24 0 -35 7 -11 7 -17 0 -17 -6 0 -8 -7 -5 -15 4 -8 2 -15 -4
-15 -6 0 -8 -10 -4 -22 3 -12 1 -19 -5 -15 -11 7 -11 -22 0 -40 4 -6 3 -14 -2
-18 -7 -4 -7 -15 -1 -30 5 -14 6 -25 1 -25 -9 0 -8 -30 2 -47 4 -6 3 -14 -2
-17 -5 -3 -5 -21 -1 -41 4 -19 5 -35 1 -35 -3 0 -7 -60 -9 -132 -3 -124 -6
-148 -16 -137 -6 6 -18 228 -20 356 0 57 -5 103 -9 103 -5 0 -5 5 -2 10 3 6 3
16 -2 23 -4 6 -8 82 -9 167 -2 193 -2 202 -12 196 -4 -2 -7 69 -6 157 0 89 -1
167 -4 173 -4 14 -37 7 -52 -11 -8 -9 -8 -15 0 -20 7 -4 7 -12 0 -26 -8 -13
-7 -19 0 -19 6 0 8 -5 4 -12 -11 -18 -10 -158 1 -158 6 0 3 -6 -5 -13 -9 -7
-14 -20 -12 -31 2 -10 0 -16 -5 -13 -11 7 -11 -22 0 -39 3 -6 3 -14 0 -18 -9
-8 -12 -46 -4 -46 3 0 4 -48 1 -106 -3 -58 -1 -108 3 -111 4 -3 3 -10 -2 -17
-6 -7 -8 -16 -4 -19 3 -4 1 -7 -5 -7 -7 0 -12 -5 -12 -11 0 -5 5 -7 12 -3 6 4
4 -3 -5 -16 -11 -16 -13 -29 -7 -46 5 -13 6 -24 2 -24 -10 0 -8 -82 3 -99 5
-9 5 -16 -1 -18 -10 -3 -10 -66 1 -83 3 -5 2 -11 -3 -14 -5 -3 -9 -49 -11
-103 -2 -91 -5 -112 -15 -102 -7 7 -17 203 -19 380 -1 96 -6 172 -12 180 -7 9
-11 85 -10 197 0 100 -3 182 -7 182 -5 0 -8 5 -8 11 0 5 6 7 13 4 6 -4 5 -1
-3 7 -11 10 -15 37 -15 112 0 96 -8 126 -36 126 -12 0 -22 -45 -16 -75 2 -14
0 -28 -4 -31 -5 -3 -4 -14 1 -25 6 -10 7 -19 2 -19 -10 0 -9 -30 1 -47 4 -6 3
-14 -2 -17 -6 -4 -6 -18 -1 -35 4 -15 4 -34 0 -41 -4 -7 -4 -26 0 -42 5 -15 5
-26 1 -24 -4 3 -13 -4 -20 -16 -9 -14 -9 -18 -1 -13 9 5 10 1 5 -16 -12 -36
-12 -63 -2 -76 6 -8 6 -18 1 -25 -11 -15 -11 -38 -1 -55 4 -6 3 -15 -3 -18 -8
-5 -8 -11 0 -20 7 -9 8 -15 1 -19 -6 -4 -7 -16 -2 -28 4 -12 5 -37 1 -54 -5
-20 -3 -37 3 -43 8 -8 8 -11 0 -11 -6 0 -14 -7 -17 -16 -4 -9 -2 -13 5 -8 6 3
3 -5 -6 -20 -11 -17 -13 -26 -6 -26 7 0 10 -4 7 -9 -3 -5 -8 -85 -12 -177 -6
-180 -23 -250 -25 -103 -1 46 -3 109 -5 139 -3 30 -6 105 -8 165 -3 93 -9 150
-16 150 -1 0 -3 8 -5 18 -2 9 1 17 6 17 6 0 6 7 1 18 -4 9 -8 94 -7 187 1 99
-2 178 -8 190 -6 11 -11 63 -12 115 -2 52 -3 98 -4 102 0 3 -13 3 -28 -1 -20
-5 -27 -13 -27 -32 0 -13 4 -30 8 -38 5 -7 4 -17 -2 -23 -7 -7 -8 -17 -2 -29
6 -10 6 -20 2 -23 -10 -6 -8 -68 2 -85 5 -7 4 -17 -2 -23 -6 -6 -8 -17 -5 -25
3 -8 0 -19 -8 -24 -10 -6 -11 -9 -1 -9 9 0 9 -7 -3 -30 -9 -18 -11 -30 -5 -30
7 0 8 -6 1 -19 -6 -10 -8 -21 -4 -24 5 -6 8 -64 3 -77 -7 -21 -7 -40 1 -40 7
0 7 -6 0 -17 -6 -11 -6 -24 0 -35 6 -11 6 -18 1 -18 -5 0 -8 -13 -7 -30 1 -16
-1 -27 -6 -24 -5 3 -10 0 -10 -5 -1 -6 -2 -17 -3 -23 -1 -7 1 -23 6 -36 4 -13
5 -21 0 -19 -8 6 -6 -77 2 -99 3 -8 1 -14 -5 -14 -6 0 -6 -7 1 -20 6 -11 7
-20 3 -20 -5 0 -8 -20 -8 -44 1 -25 -3 -44 -8 -43 -5 1 -11 -6 -12 -15 -2 -10
0 -18 3 -18 8 0 6 -196 -2 -209 -4 -5 -1 -13 5 -17 9 -5 7 -11 -6 -21 -11 -7
-14 -13 -9 -13 6 0 11 -6 11 -14 0 -8 -5 -12 -11 -10 -7 3 -10 -9 -8 -33 4
-49 4 -49 0 -110 -2 -29 0 -53 5 -53 4 0 5 -4 2 -10 -3 -5 -1 -10 5 -10 6 0 8
-4 5 -10 -3 -5 3 -10 14 -10 12 0 31 -11 43 -25 12 -14 26 -25 32 -25 5 0 1 7
-10 16 -18 15 -18 15 3 4 14 -6 20 -16 17 -25 -5 -11 -2 -13 12 -8 12 4 15 3
10 -5 -4 -7 -2 -12 4 -12 6 0 8 -5 4 -12 -5 -7 -2 -9 8 -5 11 4 18 -2 22 -18
5 -18 11 -23 24 -18 15 6 15 5 3 -11 -8 -9 -10 -16 -5 -15 18 3 49 -3 37 -8
-10 -3 -9 -8 2 -20 8 -8 13 -18 10 -23 -3 -5 5 -16 17 -24 15 -11 18 -16 8
-16 -10 0 -11 -3 -4 -8 20 -13 31 -46 33 -102 2 -30 9 -69 16 -87 8 -18 10
-35 6 -38 -5 -2 -6 -19 -4 -37 3 -18 5 -37 4 -43 -5 -91 -4 -122 2 -132 5 -7
5 -18 1 -25 -10 -16 -12 -78 -3 -78 7 0 -11 -60 -21 -70 -9 -9 -7 -50 2 -50 5
0 4 -8 -1 -19 -6 -10 -8 -21 -5 -24 9 -9 4 -370 -5 -381 -4 -6 -8 -30 -8 -54
0 -24 -3 -46 -6 -49 -4 -3 -2 -14 4 -24 5 -11 6 -19 2 -19 -4 0 -8 -13 -8 -29
0 -16 3 -27 7 -24 5 2 4 -6 -1 -19 -4 -13 -6 -28 -4 -34 5 -15 -45 -25 -54
-11 -4 6 -1 7 7 2 8 -5 11 -4 7 3 -4 5 -18 9 -32 7 -14 -1 -28 2 -31 7 -3 4
-10 6 -15 3 -5 -4 -9 -3 -9 2 0 4 -12 9 -27 10 -47 3 -87 15 -107 32 -11 9
-16 10 -12 4 5 -9 2 -11 -8 -7 -9 3 -16 11 -16 16 0 7 -5 6 -14 -1 -10 -9 -16
-8 -26 4 -7 8 -16 12 -21 9 -5 -3 -9 1 -9 8 0 9 -3 9 -10 -2 -8 -13 -10 -12
-10 3 0 9 -5 17 -11 17 -5 0 -7 -6 -4 -12 4 -7 -3 -2 -15 12 -12 14 -19 19
-15 13 3 -7 2 -13 -4 -13 -6 0 -15 9 -21 20 -6 11 -16 17 -25 14 -8 -4 -15 -1
-15 7 0 7 -3 9 -7 6 -3 -4 -13 -1 -21 6 -13 9 -14 9 -8 0 10 -18 -6 -16 -30 3
-10 8 -13 12 -5 8 9 -5 12 -3 7 5 -4 6 -11 9 -15 7 -10 -7 -53 23 -47 33 3 4
-2 8 -10 8 -10 0 -11 -4 -4 -11 5 -5 10 -15 10 -20 0 -6 -8 1 -17 14 -10 14
-17 28 -16 32 2 4 -8 3 -22 -2 -19 -7 -23 -6 -19 4 3 8 0 17 -7 22 -8 5 -10 3
-4 -7 5 -8 -5 -3 -21 11 -20 18 -24 19 -14 5 14 -18 13 -19 -1 -8 -9 7 -19 10
-23 6 -4 -4 -4 0 -1 8 3 9 -2 22 -12 30 -17 13 -17 13 -3 -6 14 -19 14 -20 -6
-2 -11 9 -24 14 -27 10 -4 -3 -7 -1 -7 4 0 6 6 14 13 17 8 4 7 5 -3 5 -33 -2
-51 1 -46 10 3 5 -2 15 -11 22 -10 8 -14 9 -10 2 4 -6 3 -15 -3 -18 -6 -4 -10
-3 -9 2 5 19 -15 43 -34 43 -11 0 -18 3 -14 6 9 9 -19 34 -38 34 -11 0 -15 5
-12 14 4 9 -2 17 -14 21 -10 4 -19 11 -19 16 0 5 -3 8 -7 8 -20 -3 -33 2 -30
13 1 7 -4 13 -10 14 -7 1 -17 2 -23 3 -5 0 -10 11 -10 23 0 12 -3 19 -6 15 -9
-9 -33 16 -26 28 3 6 2 7 -3 3 -11 -10 -47 11 -40 23 4 5 1 9 -5 9 -6 0 -8 4
-5 10 3 5 0 7 -8 4 -8 -3 -18 0 -23 7 -5 8 -3 10 7 3 10 -6 10 -2 -2 16 -9 14
-21 25 -27 25 -6 0 -14 4 -19 9 -5 5 -3 6 5 2 6 -4 12 -2 12 3 0 6 -5 11 -11
11 -5 0 -7 5 -3 12 5 7 0 9 -14 6 -19 -5 -20 -3 -11 13 5 11 6 19 2 18 -4 -1
-11 0 -15 1 -5 1 -14 3 -20 4 -7 0 -14 6 -14 11 -4 29 -18 55 -29 55 -13 0
-31 37 -27 53 1 5 -2 6 -8 2 -5 -3 -10 -1 -10 6 0 6 -8 18 -17 26 -11 9 -12
12 -3 7 8 -4 3 4 -13 19 -27 26 -36 44 -15 31 7 -4 8 -3 4 4 -4 7 -14 12 -22
12 -8 0 -14 9 -14 19 0 24 -32 81 -45 81 -5 0 -3 5 5 10 13 8 12 10 -2 10 -10
0 -18 6 -18 14 0 8 -5 18 -12 22 -7 5 -8 3 -3 -6 5 -9 4 -11 -4 -6 -9 6 -9 11
0 22 9 11 8 15 -5 20 -10 4 -15 13 -11 21 3 10 1 13 -9 10 -10 -4 -12 0 -8 15
3 11 -1 24 -9 29 -11 7 -11 9 -1 9 10 0 10 3 0 14 -7 8 -16 12 -19 10 -3 -2
-4 8 -1 21 3 19 0 25 -14 25 -14 0 -16 2 -6 9 11 7 11 9 -2 14 -9 4 -13 13
-10 20 3 8 -2 22 -11 31 -10 10 -12 16 -4 16 9 0 9 3 -1 15 -6 8 -8 20 -4 26
5 8 3 9 -6 4 -10 -6 -12 -4 -7 8 3 9 2 19 -4 23 -6 3 -8 12 -5 20 3 7 0 16 -6
20 -6 4 -8 3 -4 -4 3 -6 3 -13 -1 -15 -5 -3 -8 19 -8 48 1 30 -2 52 -6 49 -12
-7 -18 23 -7 34 7 7 3 14 -11 22 -13 7 -19 16 -14 23 10 16 13 37 5 37 -4 0
-7 15 -8 33 0 17 -4 66 -9 107 -4 41 -9 86 -10 100 -2 26 -6 30 -27 30 -9 0
-9 -3 -2 -8 6 -4 10 -46 9 -102 0 -52 4 -101 9 -107 5 -9 4 -13 -5 -13 -8 0
-5 -6 7 -15 14 -11 15 -14 4 -15 -13 0 -13 -2 -1 -9 10 -6 12 -20 8 -45 -3
-20 -2 -36 3 -36 5 0 7 -6 4 -14 -3 -8 -1 -17 5 -21 6 -3 11 -12 11 -18 0 -7
-4 -6 -10 3 -6 9 -10 10 -10 3 0 -6 4 -14 10 -18 5 -3 8 -21 6 -40 -1 -19 2
-35 6 -35 5 0 6 -4 3 -10 -3 -5 0 -10 7 -10 9 0 9 -3 -2 -10 -10 -6 -11 -10
-2 -10 6 0 12 -11 12 -24 0 -13 6 -27 13 -29 7 -3 4 -6 -6 -6 -10 -1 -15 -6
-12 -11 4 -6 12 -7 18 -4 7 4 9 4 5 0 -4 -5 -3 -18 2 -31 6 -15 4 -27 -3 -34
-9 -9 -8 -11 7 -5 13 5 17 4 12 -4 -4 -7 -4 -18 1 -24 4 -7 8 -17 9 -23 5 -30
10 -41 24 -52 13 -11 13 -12 1 -13 -11 0 -10 -4 5 -16 10 -8 13 -12 5 -8 -11
6 -13 3 -7 -12 4 -10 9 -24 10 -31 1 -7 6 -16 11 -20 4 -5 4 -1 0 7 -8 13 -7
13 9 0 17 -13 17 -14 -1 -21 -10 -4 -13 -8 -6 -8 6 -1 19 -15 27 -33 18 -34
21 -51 6 -28 -7 10 -10 11 -10 2 0 -7 7 -15 16 -19 8 -3 13 -11 10 -18 -2 -7
5 -16 17 -20 12 -3 17 -9 11 -11 -17 -7 -5 -44 15 -45 10 0 11 -3 4 -6 -10 -3
-10 -7 0 -18 7 -7 15 -11 19 -8 4 2 5 -4 1 -13 -4 -12 -3 -15 5 -10 8 5 12 0
12 -14 0 -12 4 -18 10 -15 5 3 10 0 10 -9 0 -8 -3 -16 -7 -19 -5 -2 -2 -2 5
-1 6 2 12 -1 12 -7 0 -6 6 -7 12 -3 10 6 10 4 0 -8 -10 -13 -10 -18 -1 -24 8
-5 9 -3 4 6 -5 8 -4 11 3 6 6 -4 9 -13 5 -21 -3 -9 1 -15 11 -15 9 0 16 -8 16
-20 0 -12 7 -20 18 -21 9 0 12 -3 5 -5 -8 -4 -7 -11 4 -24 9 -10 21 -16 26
-13 5 3 4 -4 -2 -16 -7 -12 -8 -21 -4 -20 20 3 34 -2 28 -11 -3 -5 -1 -10 5
-10 7 0 10 -7 7 -15 -4 -8 -1 -17 5 -21 7 -4 8 -3 4 4 -4 7 -1 12 7 12 9 0 14
-9 13 -22 0 -13 5 -23 12 -24 6 -1 17 -2 22 -3 6 0 10 -10 10 -22 0 -11 5 -17
10 -14 6 4 10 -6 10 -22 0 -22 2 -25 10 -13 7 11 10 11 10 2 0 -7 10 -23 21
-35 12 -12 18 -15 13 -7 -4 8 9 -1 29 -20 40 -37 51 -56 15 -24 l-22 19 20
-26 c10 -15 22 -25 27 -22 11 6 107 -88 101 -99 -3 -5 -2 -8 3 -7 22 4 43 -2
38 -11 -3 -5 1 -10 10 -10 9 0 13 -5 10 -10 -3 -5 1 -10 10 -10 8 0 19 -10 24
-22 5 -14 10 -17 15 -10 4 7 13 12 19 12 8 0 7 -3 -2 -9 -11 -7 -9 -10 6 -15
30 -9 64 -42 55 -52 -4 -4 1 -2 11 5 15 12 17 11 17 -3 0 -10 3 -15 8 -13 10
7 32 -19 24 -29 -4 -5 0 -3 10 4 12 10 18 10 24 1 5 -8 3 -10 -7 -5 -8 4 -5 1
5 -8 10 -8 23 -13 28 -10 4 3 11 -2 14 -10 3 -9 10 -16 16 -16 5 0 6 5 2 12
-4 7 -3 8 4 4 7 -4 12 -15 12 -24 0 -15 2 -15 10 -2 8 12 10 10 10 -9 0 -19 3
-21 14 -12 11 10 17 8 29 -9 10 -14 17 -18 22 -11 4 8 14 3 26 -11 12 -13 17
-16 13 -8 -4 8 3 5 15 -8 19 -19 25 -21 39 -10 12 10 14 10 8 0 -4 -7 -1 -12
8 -12 9 0 16 -4 16 -10 0 -5 7 -7 15 -4 8 4 17 -1 21 -10 3 -9 10 -13 15 -10
5 3 23 -1 39 -10 20 -9 28 -10 24 -3 -5 8 -3 8 7 0 7 -7 21 -13 32 -13 10 0
15 -5 12 -11 -4 -6 -1 -10 6 -8 36 4 60 -2 53 -13 -5 -9 -2 -9 9 1 14 11 17
11 17 -1 0 -9 11 -13 35 -13 19 1 35 -2 35 -7 0 -5 4 -7 9 -3 5 3 12 1 16 -4
3 -6 12 -8 20 -4 9 3 15 -1 15 -8 0 -11 3 -11 10 1 7 11 10 11 10 2 0 -7 4
-11 9 -7 5 3 12 2 14 -3 3 -4 21 -7 41 -6 20 1 36 -3 36 -8 0 -6 5 -6 14 1 11
9 15 9 18 0 2 -7 23 -11 51 -11 31 1 47 -3 47 -11 0 -7 4 -6 10 3 5 8 10 10
10 4 0 -13 -3 -13 224 -14 146 -1 191 2 197 12 7 10 9 10 9 -2 0 -12 2 -12 9
-2 5 8 23 13 42 12 19 -1 39 -1 44 0 6 1 14 2 19 1 4 -1 15 4 24 11 13 11 15
11 7 -2 -6 -12 -5 -13 6 -2 7 6 28 12 45 12 18 0 36 5 40 11 4 8 9 7 15 -2 5
-8 9 -9 9 -3 0 6 12 12 26 12 15 0 30 5 34 12 6 10 9 9 14 -1 5 -11 7 -11 12
-1 3 6 14 12 25 12 10 0 19 6 19 13 0 8 4 7 10 -3 6 -10 10 -11 10 -2 0 6 11
12 24 12 13 0 27 6 29 13 4 9 6 9 6 -1 1 -10 6 -10 24 -1 12 7 25 17 29 23 5
8 8 7 8 -1 0 -7 7 -10 15 -7 8 3 14 9 13 12 -2 20 3 25 12 12 8 -13 11 -13 19
-1 5 7 20 13 35 13 14 0 24 3 22 7 -2 3 2 12 10 19 8 7 14 8 14 2 0 -6 7 -6
19 2 11 7 17 17 13 23 -3 5 2 4 11 -4 15 -12 17 -11 17 2 0 10 6 14 14 11 8
-3 19 3 26 16 9 16 15 19 24 11 10 -8 16 -8 25 2 6 8 9 17 6 21 -3 3 1 2 7 -4
9 -7 16 -4 25 12 7 14 12 17 13 9 0 -10 14 -2 37 20 21 18 31 25 23 13 -8 -11
-3 -7 13 8 22 23 27 25 28 11 0 -11 3 -13 6 -5 2 6 9 10 14 7 5 -4 6 2 2 11
-4 12 -3 15 5 10 7 -4 12 -2 12 4 0 6 5 8 10 5 9 -6 14 8 11 28 -1 5 3 5 9 2
6 -4 18 1 26 11 9 11 12 12 8 4 -7 -12 -5 -13 8 -3 8 7 17 10 21 7 3 -3 3 5 0
18 -4 18 -3 20 6 8 9 -13 11 -13 11 3 0 9 5 17 11 17 5 0 7 -6 4 -12 -4 -7 1
-4 10 7 9 11 21 19 26 17 6 -1 8 2 4 8 -3 5 1 13 9 16 9 3 14 10 11 14 -3 5
-1 11 4 14 5 4 13 1 17 -5 5 -8 3 -9 -6 -4 -9 5 -11 4 -6 -4 10 -15 29 -3 22
15 -5 13 6 19 27 15 5 -1 5 3 2 9 -9 15 35 62 51 56 8 -3 11 2 9 13 -3 14 1
17 16 14 19 -5 28 12 9 19 -6 2 -1 9 10 15 17 11 19 10 14 -5 -3 -9 1 -7 8 6
8 12 16 21 19 20 2 -2 -3 3 -11 11 -13 11 -12 12 9 6 13 -4 21 -3 18 2 -3 5
18 32 47 61 29 28 50 55 47 58 -3 4 2 4 11 1 10 -3 17 -3 17 1 -4 28 3 44 17
38 8 -3 13 -2 9 3 -9 16 7 42 22 37 9 -4 11 -2 7 6 -4 6 1 17 11 25 13 9 14
13 5 13 -9 0 -7 5 5 14 11 8 24 12 30 9 5 -2 1 3 -9 11 -19 16 -19 16 5 16 17
0 20 3 10 9 -11 7 -9 10 8 16 19 6 20 9 9 23 -8 10 -9 13 -1 9 7 -4 14 1 18
13 3 11 13 20 21 20 8 0 12 5 9 10 -4 6 -11 8 -16 5 -5 -4 -9 -4 -9 -2 0 3 15
14 33 26 24 15 27 21 13 21 -16 0 -16 2 5 21 13 11 18 18 12 14 -9 -4 -11 -1
-7 9 3 9 10 14 14 11 5 -3 12 0 16 6 3 6 1 15 -6 19 -9 6 -6 10 9 15 19 6 20
9 9 23 -7 9 -8 13 -3 10 6 -4 17 2 24 14 10 16 10 19 -1 13 -7 -3 -6 -1 2 7 9
7 15 23 14 36 -1 13 7 29 17 35 11 7 19 15 19 20 0 4 -4 5 -10 2 -6 -3 -7 1
-4 9 3 9 10 16 16 16 5 0 7 4 4 9 -4 5 0 12 6 14 10 4 9 8 -2 16 -13 9 -13 11
1 11 11 0 15 8 14 25 -2 14 1 25 6 25 5 0 9 10 9 23 0 13 6 29 13 36 10 11 10
13 0 7 -7 -4 -13 -2 -13 3 0 6 5 11 10 11 6 0 10 14 10 30 0 17 5 30 12 30 9
0 9 3 0 12 -7 7 -12 17 -12 22 0 6 5 4 10 -4 8 -12 10 -11 11 8 2 31 3 35 13
51 7 10 6 12 -4 6 -10 -6 -11 -4 -4 6 20 31 32 79 20 79 -7 0 -7 3 2 8 8 6 13
38 14 100 0 51 5 92 10 92 4 0 8 4 8 8 0 21 -30 6 -31 -15 -1 -12 -2 -26 -4
-30 -1 -5 -5 -25 -9 -45 -5 -21 -13 -38 -18 -38 -5 0 -6 -10 -3 -21 5 -15 4
-19 -4 -15 -7 5 -11 -4 -12 -23 -1 -17 -2 -34 -4 -38 -1 -5 -5 -26 -10 -48 -4
-22 -12 -46 -18 -53 -5 -7 -7 -15 -3 -19 3 -3 -1 -17 -10 -31 -11 -17 -12 -22
-3 -16 12 6 12 5 0 -9 -7 -9 -11 -23 -7 -32 3 -8 0 -14 -6 -12 -6 1 -13 -4
-16 -12 -3 -9 0 -11 9 -7 8 4 7 2 -2 -6 -8 -7 -24 -35 -34 -63 -11 -27 -24
-53 -29 -57 -7 -5 -6 -8 2 -8 10 0 10 -3 0 -14 -7 -8 -17 -11 -23 -8 -5 3 -4
-2 4 -11 11 -14 11 -18 -3 -23 -10 -4 -15 -13 -11 -21 3 -11 1 -13 -10 -9 -13
4 -14 2 -5 -14 8 -16 7 -18 -8 -15 -11 2 -19 -3 -19 -10 0 -8 5 -12 11 -9 6 3
0 -4 -14 -15 -14 -11 -21 -21 -16 -21 6 0 1 -7 -10 -15 -10 -8 -15 -15 -10
-15 5 0 2 -8 -5 -17 -12 -14 -12 -16 1 -9 8 4 4 -1 -9 -12 -16 -13 -22 -25
-18 -36 4 -10 3 -15 -3 -11 -6 3 -14 -5 -19 -19 -6 -13 -19 -27 -31 -31 -11
-3 -18 -11 -15 -16 7 -10 -8 -40 -21 -42 -5 -1 -9 -9 -9 -17 0 -8 -9 -14 -18
-13 -12 0 -16 -4 -13 -13 3 -8 1 -14 -5 -14 -6 0 -7 -4 -4 -10 6 -9 -8 -15
-29 -11 -5 1 -3 -5 4 -14 11 -13 10 -14 -6 -8 -17 6 -17 5 -5 -10 16 -20 1
-23 -18 -4 -10 10 -11 8 -5 -7 5 -13 4 -17 -4 -12 -7 4 -10 -1 -7 -14 2 -11 0
-18 -5 -15 -11 7 -54 -14 -46 -22 3 -3 14 0 23 8 16 13 17 12 4 -3 -7 -10 -20
-18 -28 -18 -8 0 -12 -4 -9 -9 3 -4 -4 -17 -16 -27 -12 -11 -18 -13 -14 -6 4
6 3 12 -3 12 -6 0 -14 -12 -17 -26 -4 -16 -11 -23 -21 -20 -9 4 -11 2 -7 -6 5
-8 2 -9 -11 -4 -16 6 -16 4 -4 -11 12 -15 12 -16 -3 -10 -13 4 -18 1 -18 -10
0 -9 -3 -14 -6 -10 -9 8 -54 -43 -54 -62 0 -14 -2 -14 -10 -1 -8 13 -10 12
-10 -3 0 -10 -4 -15 -10 -12 -5 3 -10 1 -10 -5 0 -6 -5 -8 -12 -4 -7 5 -9 2
-5 -9 4 -11 2 -14 -9 -10 -9 3 -14 -1 -14 -12 0 -11 -5 -15 -15 -11 -8 3 -15
1 -15 -5 0 -5 -11 -14 -25 -21 -13 -6 -22 -15 -18 -21 3 -6 1 -7 -5 -3 -6 4
-21 -3 -32 -14 -12 -12 -28 -19 -36 -16 -9 3 -12 1 -9 -4 3 -6 1 -10 -5 -10
-6 0 -9 -4 -6 -9 3 -4 -6 -13 -20 -20 -20 -9 -24 -9 -18 1 6 9 3 9 -9 -1 -9
-7 -14 -18 -10 -25 4 -6 -2 -4 -12 4 -11 9 -16 10 -11 3 7 -12 3 -14 -31 -17
-7 -1 -20 -10 -28 -21 -9 -11 -14 -14 -10 -8 4 9 1 11 -9 7 -9 -3 -16 -13 -16
-21 0 -12 -3 -13 -14 -4 -11 10 -17 8 -25 -6 -18 -32 -35 2 -37 74 -2 36 -6
69 -11 72 -4 3 -9 30 -10 60 -1 30 -6 57 -11 60 -4 3 -8 29 -9 56 -1 28 -4 61
-8 75 -4 14 -8 52 -9 85 -1 33 -5 66 -9 73 -5 7 -4 12 2 12 6 0 11 5 11 10 0
6 -6 9 -12 8 -10 -2 -13 28 -13 119 0 102 -3 123 -15 124 -10 0 -11 2 -2 6 6
2 9 10 5 16 -11 16 -11 977 -1 977 4 0 8 7 8 16 0 9 5 12 12 8 7 -4 8 -3 4 4
-4 7 4 22 18 36 29 26 35 46 9 25 -16 -13 -17 -12 -4 3 7 10 17 16 21 13 5 -3
11 -1 15 5 3 5 0 10 -7 11 -7 0 -3 5 10 11 12 6 22 19 22 30 0 10 5 18 11 18
5 0 7 5 4 10 -4 6 -1 9 7 8 7 -2 12 5 12 14 -1 10 1 17 5 16 19 -2 24 4 11 12
-12 8 -10 10 10 10 20 0 22 2 10 10 -13 9 -7 14 12 11 4 0 5 6 2 14 -4 8 -1
15 6 15 6 0 8 5 5 10 -3 6 1 10 9 10 19 0 22 20 4 20 -7 1 -4 6 7 13 11 7 21
19 23 27 2 8 9 18 15 22 9 6 8 10 -2 17 -11 7 -9 10 8 16 11 3 21 11 21 16 0
6 -6 7 -12 4 -7 -4 -4 2 8 12 11 10 20 25 19 33 0 8 5 21 12 28 15 16 17 36 3
27 -6 -3 -7 1 -4 9 3 9 10 13 15 10 5 -3 9 0 9 6 0 6 6 8 13 4 9 -5 9 -4 0 6
-9 9 -9 19 -2 32 6 11 8 27 5 35 -5 12 -3 13 7 5 10 -9 13 -4 12 21 -1 18 3
38 8 45 6 8 5 12 -4 12 -10 1 -9 3 3 10 9 6 15 18 14 28 -2 9 1 19 5 22 5 3
10 33 11 65 1 33 5 65 8 70 8 11 9 14 12 118 2 42 0 77 -5 77 -4 0 -5 5 -2 10
3 6 3 10 -2 10 -4 0 -9 24 -11 53 -2 28 -7 56 -12 61 -5 5 -6 14 -4 21 3 7 1
16 -5 19 -6 4 -8 13 -5 20 3 8 1 17 -5 21 -6 3 -11 17 -11 30 0 15 -7 26 -21
30 -17 6 -19 9 -8 16 12 8 12 10 0 18 -8 5 -11 16 -8 26 4 9 3 14 -1 11 -13
-7 -39 28 -36 48 2 13 -1 15 -11 6 -11 -9 -12 -7 -8 8 2 11 -1 23 -8 27 -8 6
-10 4 -4 -6 7 -12 6 -12 -7 -1 -10 8 -14 20 -11 29 4 11 2 14 -5 9 -8 -5 -10
-2 -6 8 3 9 1 16 -6 16 -6 0 -8 5 -5 10 3 6 -4 10 -17 10 -18 0 -20 2 -8 10
12 8 10 10 -10 11 -14 0 -19 3 -12 6 8 3 1 12 -20 23 -20 11 -32 24 -30 34 3
14 -9 21 -30 17 -5 0 -8 4 -8 10 0 5 -5 7 -12 3 -8 -5 -9 -2 -5 10 4 9 3 14
-2 11 -5 -3 -12 -1 -16 5 -4 6 -10 8 -15 5 -4 -3 -11 3 -14 12 -4 10 -10 13
-14 8 -4 -6 -23 -2 -49 11 -23 12 -39 25 -35 30 4 5 -2 2 -12 -6 -11 -8 -17
-10 -13 -4 4 7 -5 11 -23 12 -17 0 -30 -4 -30 -9 0 -5 -5 -9 -11 -9 -5 0 -7 5
-4 10 11 17 -10 11 -23 -7z m-172 -128 c0 -2 -10 -9 -22 -15 -22 -11 -22 -10
-4 4 21 17 26 19 26 11z m-98 -92 c-6 -2 -9 -10 -6 -15 4 -7 2 -8 -5 -4 -13 9
-5 26 12 25 9 0 8 -2 -1 -6z m1107 -3116 c-2 -1 -13 -9 -24 -17 -19 -14 -19
-14 -6 3 7 9 18 17 24 17 6 0 8 -1 6 -3z"/>
<path d="M3420 4696 c0 -3 9 -10 20 -16 11 -6 20 -8 20 -6 0 3 -9 10 -20 16
-11 6 -20 8 -20 6z"/>
<path d="M3590 4576 c0 -2 7 -6 15 -10 8 -3 15 -1 15 4 0 6 -7 10 -15 10 -8 0
-15 -2 -15 -4z"/>
<path d="M4839 2889 c0 -8 -2 -45 -4 -82 -2 -38 -6 -75 -9 -82 -6 -17 10 -30
19 -16 8 14 9 180 1 188 -3 3 -6 0 -7 -8z"/>
<path d="M4200 1479 c0 -5 5 -7 10 -4 6 3 10 8 10 11 0 2 -4 4 -10 4 -5 0 -10
-5 -10 -11z"/>
<path d="M4340 1415 c-7 -9 -8 -15 -2 -15 5 0 12 7 16 15 3 8 4 15 2 15 -2 0
-9 -7 -16 -15z"/>
<path d="M4300 1375 c-7 -8 -9 -15 -6 -15 4 0 14 7 22 15 9 8 11 15 6 15 -5 0
-15 -7 -22 -15z"/>
<path d="M4125 1200 c-3 -6 1 -7 9 -4 18 7 21 14 7 14 -6 0 -13 -4 -16 -10z"/>
<path d="M1170 1165 c13 -14 26 -25 28 -25 3 0 -5 11 -18 25 -13 14 -26 25
-28 25 -3 0 5 -11 18 -25z"/>
</g>
</svg>
